<svg xmlns="http://www.w3.org/2000/svg" width="50mm" height="50mm" viewBox="0 0 1000 1000" role="img"><title>GYMTAVO NFC/QR-Tag 50 x 50 mm, finaler Entwurf mit MUSTER-QR</title><defs><clipPath id="tag-outline"><rect width="1000" height="1000" rx="80"/></clipPath></defs><rect width="1000" height="1000" rx="80" fill="#0A0B0D"/><g fill="#F2F4F7"><path d="M388 -12Q216 -12 130.5 78.0Q45 168 45 344Q45 462 89.0 541.0Q133 620 217.0 660.0Q301 700 420 700Q492 700 555.5 683.5Q619 667 667.5 634.5Q716 602 743.0 553.0Q770 504 770 439H559Q559 461 548.5 479.0Q538 497 520.0 509.5Q502 522 478.5 528.5Q455 535 429 535Q390 535 360.0 524.5Q330 514 310.5 493.0Q291 472 281.0 443.0Q271 414 271 376V312Q271 262 288.5 226.5Q306 191 341.5 172.0Q377 153 429 153Q464 153 493.5 163.5Q523 174 541.0 194.0Q559 214 559 240V244H403V384H770V0H656L634 68Q603 42 566.0 24.0Q529 6 485.0 -3.0Q441 -12 388 -12Z" transform="translate(138.315950 188.420000) scale(0.13000000 -0.13000000)"/><path d="M280 0V267L7 688H261L393 459H397L529 688H770L501 267V0Z" transform="translate(240.105950 188.420000) scale(0.13000000 -0.13000000)"/><path d="M74 0V688H382L445 446Q449 433 456.5 403.0Q464 373 472.5 338.0Q481 303 488 273H496Q501 295 508.5 325.5Q516 356 524.0 388.0Q532 420 538 446L601 688H898V0H687V248Q687 288 687.5 330.5Q688 373 688.5 411.0Q689 449 689 474H681Q678 454 672.5 427.0Q667 400 661.0 373.5Q655 347 649 327L560 0H395L305 327Q300 347 293.5 373.5Q287 400 282.0 427.0Q277 454 273 473H265Q266 448 267.0 410.0Q268 372 268.5 330.0Q269 288 269 248V0Z" transform="translate(334.745950 188.420000) scale(0.13000000 -0.13000000)"/><path d="M249 0V512H23V688H695V512H470V0Z" transform="translate(454.605950 188.420000) scale(0.13000000 -0.13000000)"/><path d="M10 0 261 688H518L769 0H535L506 97H265L236 0ZM311 251H461L428 361Q424 373 419.0 390.0Q414 407 409.0 426.0Q404 445 399.0 463.5Q394 482 390 496H382Q378 478 371.5 455.0Q365 432 358.0 407.5Q351 383 344 361Z" transform="translate(531.565950 188.420000) scale(0.13000000 -0.13000000)"/><path d="M261 0 17 688H253L348 370Q352 357 359.0 332.0Q366 307 374.5 279.0Q383 251 389 228H397Q403 249 411.0 276.0Q419 303 426.5 328.5Q434 354 438 370L534 688H760L517 0Z" transform="translate(619.705950 188.420000) scale(0.13000000 -0.13000000)"/><path d="M416 -12Q299 -12 216.0 28.0Q133 68 89.0 147.5Q45 227 45 344Q45 462 89.0 541.0Q133 620 216.0 660.0Q299 700 416 700Q534 700 617.0 660.0Q700 620 744.0 541.0Q788 462 788 344Q788 227 744.0 147.5Q700 68 617.0 28.0Q534 -12 416 -12ZM416 153Q452 153 479.5 164.5Q507 176 525.5 197.0Q544 218 553.0 247.5Q562 277 562 312V376Q562 411 553.0 440.5Q544 470 525.5 491.0Q507 512 479.5 523.5Q452 535 416 535Q380 535 352.5 523.5Q325 512 307.0 491.0Q289 470 280.0 440.5Q271 411 271 376V312Q271 277 280.0 247.5Q289 218 307.0 197.0Q325 176 352.5 164.5Q380 153 416 153Z" transform="translate(711.745950 188.420000) scale(0.13000000 -0.13000000)"/></g><circle cx="844.832215" cy="171.568165" r="16.851835" fill="#D4FF3F"/><svg x="70" y="250" width="490" height="490" viewBox="0 0 33 33"><rect width="33" height="33" rx="2" fill="#F2F4F7"/><rect x="13" y="4" width="1" height="1" rx="0.27" fill="#0A0B0D"/><rect x="14" y="4" width="1" height="1" rx="0.27" fill="#0A0B0D"/><rect x="15" y="4" width="1" height="1" rx="0.27" fill="#0A0B0D"/><rect x="14" y="5" width="1" height="1" rx="0.27" fill="#0A0B0D"/><rect x="15" y="5" width="1" height="1" rx="0.27" fill="#0A0B0D"/><rect x="16" y="5" width="1" height="1" rx="0.27" fill="#0A0B0D"/><rect x="17" y="5" width="1" height="1" rx="0.27" fill="#0A0B0D"/><rect x="18" y="5" width="1" height="1" rx="0.27" fill="#0A0B0D"/><rect x="19" y="5" width="1" height="1" rx="0.27" fill="#0A0B0D"/><rect x="12" y="6" width="1" height="1" rx="0.27" fill="#0A0B0D"/><rect x="14" y="6" width="1" height="1" rx="0.27" fill="#0A0B0D"/><rect x="15" y="6" width="1" height="1" rx="0.27" fill="#0A0B0D"/><rect x="17" y="6" width="1" height="1" rx="0.27" fill="#0A0B0D"/><rect x="18" y="6" width="1" height="1" rx="0.27" fill="#0A0B0D"/><rect x="20" y="6" width="1" height="1" rx="0.27" fill="#0A0B0D"/><rect x="12" y="7" width="1" height="1" rx="0.27" fill="#0A0B0D"/><rect x="14" y="7" width="1" height="1" rx="0.27" fill="#0A0B0D"/><rect x="17" y="7" width="1" height="1" rx="0.27" fill="#0A0B0D"/><rect x="20" y="7" width="1" height="1" rx="0.27" fill="#0A0B0D"/><rect x="13" y="8" width="1" height="1" rx="0.27" fill="#0A0B0D"/><rect x="14" y="8" width="1" height="1" rx="0.27" fill="#0A0B0D"/><rect x="15" y="8" width="1" height="1" rx="0.27" fill="#0A0B0D"/><rect x="16" y="8" width="1" height="1" rx="0.27" fill="#0A0B0D"/><rect x="17" y="8" width="1" height="1" rx="0.27" fill="#0A0B0D"/><rect x="19" y="8" width="1" height="1" rx="0.27" fill="#0A0B0D"/><rect x="20" y="8" width="1" height="1" rx="0.27" fill="#0A0B0D"/><rect x="16" y="9" width="1" height="1" rx="0.27" fill="#0A0B0D"/><rect x="18" y="9" width="1" height="1" rx="0.27" fill="#0A0B0D"/><rect x="19" y="9" width="1" height="1" rx="0.27" fill="#0A0B0D"/><rect x="12" y="10" width="1" height="1" rx="0.08" fill="#0A0B0D"/><rect x="14" y="10" width="1" height="1" rx="0.08" fill="#0A0B0D"/><rect x="16" y="10" width="1" height="1" rx="0.08" fill="#0A0B0D"/><rect x="18" y="10" width="1" height="1" rx="0.08" fill="#0A0B0D"/><rect x="20" y="10" width="1" height="1" rx="0.08" fill="#0A0B0D"/><rect x="16" y="11" width="1" height="1" rx="0.27" fill="#0A0B0D"/><rect x="18" y="11" width="1" height="1" rx="0.27" fill="#0A0B0D"/><rect x="19" y="11" width="1" height="1" rx="0.27" fill="#0A0B0D"/><rect x="20" y="11" width="1" height="1" rx="0.27" fill="#0A0B0D"/><rect x="7" y="12" width="1" height="1" rx="0.27" fill="#0A0B0D"/><rect x="8" y="12" width="1" height="1" rx="0.27" fill="#0A0B0D"/><rect x="10" y="12" width="1" height="1" rx="0.08" fill="#0A0B0D"/><rect x="11" y="12" width="1" height="1" rx="0.27" fill="#0A0B0D"/><rect x="14" y="12" width="1" height="1" rx="0.27" fill="#0A0B0D"/><rect x="15" y="12" width="1" height="1" rx="0.27" fill="#0A0B0D"/><rect x="19" y="12" width="1" height="1" rx="0.27" fill="#0A0B0D"/><rect x="25" y="12" width="1" height="1" rx="0.27" fill="#0A0B0D"/><rect x="26" y="12" width="1" height="1" rx="0.27" fill="#0A0B0D"/><rect x="4" y="13" width="1" height="1" rx="0.27" fill="#0A0B0D"/><rect x="5" y="13" width="1" height="1" rx="0.27" fill="#0A0B0D"/><rect x="7" y="13" width="1" height="1" rx="0.27" fill="#0A0B0D"/><rect x="12" y="13" width="1" height="1" rx="0.27" fill="#0A0B0D"/><rect x="13" y="13" width="1" height="1" rx="0.27" fill="#0A0B0D"/><rect x="14" y="13" width="1" height="1" rx="0.27" fill="#0A0B0D"/><rect x="16" y="13" width="1" height="1" rx="0.27" fill="#0A0B0D"/><rect x="18" y="13" width="1" height="1" rx="0.27" fill="#0A0B0D"/><rect x="20" y="13" width="1" height="1" rx="0.27" fill="#0A0B0D"/><rect x="21" y="13" width="1" height="1" rx="0.27" fill="#0A0B0D"/><rect x="22" y="13" width="1" height="1" rx="0.27" fill="#0A0B0D"/><rect x="25" y="13" width="1" height="1" rx="0.27" fill="#0A0B0D"/><rect x="26" y="13" width="1" height="1" rx="0.27" fill="#0A0B0D"/><rect x="27" y="13" width="1" height="1" rx="0.27" fill="#0A0B0D"/><rect x="4" y="14" width="1" height="1" rx="0.27" fill="#0A0B0D"/><rect x="6" y="14" width="1" height="1" rx="0.27" fill="#0A0B0D"/><rect x="8" y="14" width="1" height="1" rx="0.27" fill="#0A0B0D"/><rect x="9" y="14" width="1" height="1" rx="0.27" fill="#0A0B0D"/><rect x="10" y="14" width="1" height="1" rx="0.08" fill="#0A0B0D"/><rect x="11" y="14" width="1" height="1" rx="0.27" fill="#0A0B0D"/><rect x="15" y="14" width="1" height="1" rx="0.27" fill="#0A0B0D"/><rect x="17" y="14" width="1" height="1" rx="0.27" fill="#0A0B0D"/><rect x="20" y="14" width="1" height="1" rx="0.27" fill="#0A0B0D"/><rect x="23" y="14" width="1" height="1" rx="0.27" fill="#0A0B0D"/><rect x="25" y="14" width="1" height="1" rx="0.27" fill="#0A0B0D"/><rect x="26" y="14" width="1" height="1" rx="0.27" fill="#0A0B0D"/><rect x="4" y="15" width="1" height="1" rx="0.27" fill="#0A0B0D"/><rect x="5" y="15" width="1" height="1" rx="0.27" fill="#0A0B0D"/><rect x="6" y="15" width="1" height="1" rx="0.27" fill="#0A0B0D"/><rect x="7" y="15" width="1" height="1" rx="0.27" fill="#0A0B0D"/><rect x="8" y="15" width="1" height="1" rx="0.27" fill="#0A0B0D"/><rect x="9" y="15" width="1" height="1" rx="0.27" fill="#0A0B0D"/><rect x="11" y="15" width="1" height="1" rx="0.27" fill="#0A0B0D"/><rect x="12" y="15" width="1" height="1" rx="0.27" fill="#0A0B0D"/><rect x="15" y="15" width="1" height="1" rx="0.27" fill="#0A0B0D"/><rect x="16" y="15" width="1" height="1" rx="0.27" fill="#0A0B0D"/><rect x="17" y="15" width="1" height="1" rx="0.27" fill="#0A0B0D"/><rect x="22" y="15" width="1" height="1" rx="0.27" fill="#0A0B0D"/><rect x="24" y="15" width="1" height="1" rx="0.27" fill="#0A0B0D"/><rect x="25" y="15" width="1" height="1" rx="0.27" fill="#0A0B0D"/><rect x="26" y="15" width="1" height="1" rx="0.27" fill="#0A0B0D"/><rect x="4" y="16" width="1" height="1" rx="0.27" fill="#0A0B0D"/><rect x="8" y="16" width="1" height="1" rx="0.27" fill="#0A0B0D"/><rect x="10" y="16" width="1" height="1" rx="0.08" fill="#0A0B0D"/><rect x="11" y="16" width="1" height="1" rx="0.27" fill="#0A0B0D"/><rect x="13" y="16" width="1" height="1" rx="0.27" fill="#0A0B0D"/><rect x="14" y="16" width="1" height="1" rx="0.27" fill="#0A0B0D"/><rect x="16" y="16" width="1" height="1" rx="0.27" fill="#0A0B0D"/><rect x="20" y="16" width="1" height="1" rx="0.27" fill="#0A0B0D"/><rect x="23" y="16" width="1" height="1" rx="0.27" fill="#0A0B0D"/><rect x="24" y="16" width="1" height="1" rx="0.27" fill="#0A0B0D"/><rect x="28" y="16" width="1" height="1" rx="0.27" fill="#0A0B0D"/><rect x="4" y="17" width="1" height="1" rx="0.27" fill="#0A0B0D"/><rect x="6" y="17" width="1" height="1" rx="0.27" fill="#0A0B0D"/><rect x="7" y="17" width="1" height="1" rx="0.27" fill="#0A0B0D"/><rect x="13" y="17" width="1" height="1" rx="0.27" fill="#0A0B0D"/><rect x="14" y="17" width="1" height="1" rx="0.27" fill="#0A0B0D"/><rect x="15" y="17" width="1" height="1" rx="0.27" fill="#0A0B0D"/><rect x="16" y="17" width="1" height="1" rx="0.27" fill="#0A0B0D"/><rect x="18" y="17" width="1" height="1" rx="0.27" fill="#0A0B0D"/><rect x="21" y="17" width="1" height="1" rx="0.27" fill="#0A0B0D"/><rect x="26" y="17" width="1" height="1" rx="0.27" fill="#0A0B0D"/><rect x="4" y="18" width="1" height="1" rx="0.27" fill="#0A0B0D"/><rect x="5" y="18" width="1" height="1" rx="0.27" fill="#0A0B0D"/><rect x="8" y="18" width="1" height="1" rx="0.27" fill="#0A0B0D"/><rect x="10" y="18" width="1" height="1" rx="0.08" fill="#0A0B0D"/><rect x="11" y="18" width="1" height="1" rx="0.27" fill="#0A0B0D"/><rect x="13" y="18" width="1" height="1" rx="0.27" fill="#0A0B0D"/><rect x="17" y="18" width="1" height="1" rx="0.27" fill="#0A0B0D"/><rect x="19" y="18" width="1" height="1" rx="0.27" fill="#0A0B0D"/><rect x="20" y="18" width="1" height="1" rx="0.27" fill="#0A0B0D"/><rect x="21" y="18" width="1" height="1" rx="0.27" fill="#0A0B0D"/><rect x="24" y="18" width="1" height="1" rx="0.27" fill="#0A0B0D"/><rect x="25" y="18" width="1" height="1" rx="0.27" fill="#0A0B0D"/><rect x="26" y="18" width="1" height="1" rx="0.27" fill="#0A0B0D"/><rect x="28" y="18" width="1" height="1" rx="0.27" fill="#0A0B0D"/><rect x="4" y="19" width="1" height="1" rx="0.27" fill="#0A0B0D"/><rect x="6" y="19" width="1" height="1" rx="0.27" fill="#0A0B0D"/><rect x="7" y="19" width="1" height="1" rx="0.27" fill="#0A0B0D"/><rect x="9" y="19" width="1" height="1" rx="0.27" fill="#0A0B0D"/><rect x="11" y="19" width="1" height="1" rx="0.27" fill="#0A0B0D"/><rect x="14" y="19" width="1" height="1" rx="0.27" fill="#0A0B0D"/><rect x="16" y="19" width="1" height="1" rx="0.27" fill="#0A0B0D"/><rect x="19" y="19" width="1" height="1" rx="0.27" fill="#0A0B0D"/><rect x="20" y="19" width="1" height="1" rx="0.27" fill="#0A0B0D"/><rect x="23" y="19" width="1" height="1" rx="0.27" fill="#0A0B0D"/><rect x="25" y="19" width="1" height="1" rx="0.27" fill="#0A0B0D"/><rect x="26" y="19" width="1" height="1" rx="0.27" fill="#0A0B0D"/><rect x="27" y="19" width="1" height="1" rx="0.27" fill="#0A0B0D"/><rect x="4" y="20" width="1" height="1" rx="0.27" fill="#0A0B0D"/><rect x="7" y="20" width="1" height="1" rx="0.27" fill="#0A0B0D"/><rect x="8" y="20" width="1" height="1" rx="0.27" fill="#0A0B0D"/><rect x="9" y="20" width="1" height="1" rx="0.27" fill="#0A0B0D"/><rect x="10" y="20" width="1" height="1" rx="0.08" fill="#0A0B0D"/><rect x="11" y="20" width="1" height="1" rx="0.27" fill="#0A0B0D"/><rect x="12" y="20" width="1" height="1" rx="0.27" fill="#0A0B0D"/><rect x="13" y="20" width="1" height="1" rx="0.27" fill="#0A0B0D"/><rect x="14" y="20" width="1" height="1" rx="0.27" fill="#0A0B0D"/><rect x="15" y="20" width="1" height="1" rx="0.27" fill="#0A0B0D"/><rect x="17" y="20" width="1" height="1" rx="0.27" fill="#0A0B0D"/><rect x="18" y="20" width="1" height="1" rx="0.27" fill="#0A0B0D"/><rect x="19" y="20" width="1" height="1" rx="0.27" fill="#0A0B0D"/><rect x="20" y="20" width="1" height="1" rx="0.08" fill="#0A0B0D"/><rect x="21" y="20" width="1" height="1" rx="0.08" fill="#0A0B0D"/><rect x="22" y="20" width="1" height="1" rx="0.08" fill="#0A0B0D"/><rect x="23" y="20" width="1" height="1" rx="0.08" fill="#0A0B0D"/><rect x="24" y="20" width="1" height="1" rx="0.08" fill="#0A0B0D"/><rect x="25" y="20" width="1" height="1" rx="0.27" fill="#0A0B0D"/><rect x="26" y="20" width="1" height="1" rx="0.27" fill="#0A0B0D"/><rect x="12" y="21" width="1" height="1" rx="0.27" fill="#0A0B0D"/><rect x="13" y="21" width="1" height="1" rx="0.27" fill="#0A0B0D"/><rect x="14" y="21" width="1" height="1" rx="0.27" fill="#0A0B0D"/><rect x="20" y="21" width="1" height="1" rx="0.08" fill="#0A0B0D"/><rect x="24" y="21" width="1" height="1" rx="0.08" fill="#0A0B0D"/><rect x="26" y="21" width="1" height="1" rx="0.27" fill="#0A0B0D"/><rect x="27" y="21" width="1" height="1" rx="0.27" fill="#0A0B0D"/><rect x="12" y="22" width="1" height="1" rx="0.27" fill="#0A0B0D"/><rect x="15" y="22" width="1" height="1" rx="0.27" fill="#0A0B0D"/><rect x="16" y="22" width="1" height="1" rx="0.27" fill="#0A0B0D"/><rect x="20" y="22" width="1" height="1" rx="0.08" fill="#0A0B0D"/><rect x="22" y="22" width="1" height="1" rx="0.08" fill="#0A0B0D"/><rect x="24" y="22" width="1" height="1" rx="0.08" fill="#0A0B0D"/><rect x="25" y="22" width="1" height="1" rx="0.27" fill="#0A0B0D"/><rect x="27" y="22" width="1" height="1" rx="0.27" fill="#0A0B0D"/><rect x="28" y="22" width="1" height="1" rx="0.27" fill="#0A0B0D"/><rect x="13" y="23" width="1" height="1" rx="0.27" fill="#0A0B0D"/><rect x="14" y="23" width="1" height="1" rx="0.27" fill="#0A0B0D"/><rect x="16" y="23" width="1" height="1" rx="0.27" fill="#0A0B0D"/><rect x="17" y="23" width="1" height="1" rx="0.27" fill="#0A0B0D"/><rect x="20" y="23" width="1" height="1" rx="0.08" fill="#0A0B0D"/><rect x="24" y="23" width="1" height="1" rx="0.08" fill="#0A0B0D"/><rect x="25" y="23" width="1" height="1" rx="0.27" fill="#0A0B0D"/><rect x="26" y="23" width="1" height="1" rx="0.27" fill="#0A0B0D"/><rect x="12" y="24" width="1" height="1" rx="0.27" fill="#0A0B0D"/><rect x="13" y="24" width="1" height="1" rx="0.27" fill="#0A0B0D"/><rect x="18" y="24" width="1" height="1" rx="0.27" fill="#0A0B0D"/><rect x="19" y="24" width="1" height="1" rx="0.27" fill="#0A0B0D"/><rect x="20" y="24" width="1" height="1" rx="0.08" fill="#0A0B0D"/><rect x="21" y="24" width="1" height="1" rx="0.08" fill="#0A0B0D"/><rect x="22" y="24" width="1" height="1" rx="0.08" fill="#0A0B0D"/><rect x="23" y="24" width="1" height="1" rx="0.08" fill="#0A0B0D"/><rect x="24" y="24" width="1" height="1" rx="0.08" fill="#0A0B0D"/><rect x="25" y="24" width="1" height="1" rx="0.27" fill="#0A0B0D"/><rect x="12" y="25" width="1" height="1" rx="0.27" fill="#0A0B0D"/><rect x="14" y="25" width="1" height="1" rx="0.27" fill="#0A0B0D"/><rect x="15" y="25" width="1" height="1" rx="0.27" fill="#0A0B0D"/><rect x="16" y="25" width="1" height="1" rx="0.27" fill="#0A0B0D"/><rect x="18" y="25" width="1" height="1" rx="0.27" fill="#0A0B0D"/><rect x="19" y="25" width="1" height="1" rx="0.27" fill="#0A0B0D"/><rect x="20" y="25" width="1" height="1" rx="0.27" fill="#0A0B0D"/><rect x="21" y="25" width="1" height="1" rx="0.27" fill="#0A0B0D"/><rect x="22" y="25" width="1" height="1" rx="0.27" fill="#0A0B0D"/><rect x="23" y="25" width="1" height="1" rx="0.27" fill="#0A0B0D"/><rect x="24" y="25" width="1" height="1" rx="0.27" fill="#0A0B0D"/><rect x="26" y="25" width="1" height="1" rx="0.27" fill="#0A0B0D"/><rect x="28" y="25" width="1" height="1" rx="0.27" fill="#0A0B0D"/><rect x="14" y="26" width="1" height="1" rx="0.27" fill="#0A0B0D"/><rect x="15" y="26" width="1" height="1" rx="0.27" fill="#0A0B0D"/><rect x="17" y="26" width="1" height="1" rx="0.27" fill="#0A0B0D"/><rect x="22" y="26" width="1" height="1" rx="0.27" fill="#0A0B0D"/><rect x="25" y="26" width="1" height="1" rx="0.27" fill="#0A0B0D"/><rect x="26" y="26" width="1" height="1" rx="0.27" fill="#0A0B0D"/><rect x="27" y="26" width="1" height="1" rx="0.27" fill="#0A0B0D"/><rect x="28" y="26" width="1" height="1" rx="0.27" fill="#0A0B0D"/><rect x="13" y="27" width="1" height="1" rx="0.27" fill="#0A0B0D"/><rect x="14" y="27" width="1" height="1" rx="0.27" fill="#0A0B0D"/><rect x="16" y="27" width="1" height="1" rx="0.27" fill="#0A0B0D"/><rect x="17" y="27" width="1" height="1" rx="0.27" fill="#0A0B0D"/><rect x="19" y="27" width="1" height="1" rx="0.27" fill="#0A0B0D"/><rect x="20" y="27" width="1" height="1" rx="0.27" fill="#0A0B0D"/><rect x="21" y="27" width="1" height="1" rx="0.27" fill="#0A0B0D"/><rect x="22" y="27" width="1" height="1" rx="0.27" fill="#0A0B0D"/><rect x="23" y="27" width="1" height="1" rx="0.27" fill="#0A0B0D"/><rect x="24" y="27" width="1" height="1" rx="0.27" fill="#0A0B0D"/><rect x="25" y="27" width="1" height="1" rx="0.27" fill="#0A0B0D"/><rect x="26" y="27" width="1" height="1" rx="0.27" fill="#0A0B0D"/><rect x="27" y="27" width="1" height="1" rx="0.27" fill="#0A0B0D"/><rect x="13" y="28" width="1" height="1" rx="0.27" fill="#0A0B0D"/><rect x="14" y="28" width="1" height="1" rx="0.27" fill="#0A0B0D"/><rect x="15" y="28" width="1" height="1" rx="0.27" fill="#0A0B0D"/><rect x="18" y="28" width="1" height="1" rx="0.27" fill="#0A0B0D"/><rect x="19" y="28" width="1" height="1" rx="0.27" fill="#0A0B0D"/><rect x="21" y="28" width="1" height="1" rx="0.27" fill="#0A0B0D"/><rect x="22" y="28" width="1" height="1" rx="0.27" fill="#0A0B0D"/><rect x="24" y="28" width="1" height="1" rx="0.27" fill="#0A0B0D"/><rect x="26" y="28" width="1" height="1" rx="0.27" fill="#0A0B0D"/><rect x="27" y="28" width="1" height="1" rx="0.27" fill="#0A0B0D"/><rect x="28" y="28" width="1" height="1" rx="0.27" fill="#0A0B0D"/><rect x="4" y="4" width="7" height="7" rx="1.2" fill="#0A0B0D"/><rect x="5" y="5" width="5" height="5" rx=".65" fill="#F2F4F7"/><rect x="6" y="6" width="3" height="3" rx=".55" fill="#0A0B0D"/><rect x="22" y="4" width="7" height="7" rx="1.2" fill="#0A0B0D"/><rect x="23" y="5" width="5" height="5" rx=".65" fill="#F2F4F7"/><rect x="24" y="6" width="3" height="3" rx=".55" fill="#0A0B0D"/><rect x="4" y="22" width="7" height="7" rx="1.2" fill="#0A0B0D"/><rect x="5" y="23" width="5" height="5" rx=".65" fill="#F2F4F7"/><rect x="6" y="24" width="3" height="3" rx=".55" fill="#0A0B0D"/><rect x="13.5" y="13.5" width="6" height="6" rx=".65" fill="#F2F4F7"/><rect x="14.2" y="14.2" width="4.6" height="4.6" rx="1" fill="#0A0B0D"/><path d="M388 -12Q216 -12 130.5 78.0Q45 168 45 344Q45 462 89.0 541.0Q133 620 217.0 660.0Q301 700 420 700Q492 700 555.5 683.5Q619 667 667.5 634.5Q716 602 743.0 553.0Q770 504 770 439H559Q559 461 548.5 479.0Q538 497 520.0 509.5Q502 522 478.5 528.5Q455 535 429 535Q390 535 360.0 524.5Q330 514 310.5 493.0Q291 472 281.0 443.0Q271 414 271 376V312Q271 262 288.5 226.5Q306 191 341.5 172.0Q377 153 429 153Q464 153 493.5 163.5Q523 174 541.0 194.0Q559 214 559 240V244H403V384H770V0H656L634 68Q603 42 566.0 24.0Q529 6 485.0 -3.0Q441 -12 388 -12Z" transform="translate(14.691994382022472 17.707865168539325) scale(0.0035112359550561797 -0.0035112359550561797)" fill="#F2F4F7"/><circle cx="17.98" cy="17.4" r=".35" fill="#D4FF3F"/></svg><g transform="translate(635 307.5) scale(11.666666666666666)" fill="none" stroke="#D4FF3F" stroke-width="2" stroke-linecap="round" stroke-linejoin="round"><path d="M6 8.32a7.43 7.43 0 0 1 0 7.36"/><path d="M9.46 6.21a11.76 11.76 0 0 1 0 11.58"/><path d="M12.91 4.1a15.91 15.91 0 0 1 .01 15.8"/><path d="M16.37 2a20.16 20.16 0 0 1 0 20"/></g><g fill="#D4FF3F"><path d="M74 0V688H262L476 441Q485 431 500.0 412.0Q515 393 530.5 373.5Q546 354 554 342L559 344Q558 372 558.0 399.5Q558 427 558 441V688H759V0H572L331 275Q314 295 302.0 311.5Q290 328 279 343L274 341Q275 322 275.0 303.0Q275 284 275 275V0Z" transform="translate(682.825000 670.050000) scale(0.07500000 -0.07500000)"/><path d="M74 0V688H630V523H295V405H583V247H295V0Z" transform="translate(749.800000 670.050000) scale(0.07500000 -0.07500000)"/><path d="M402 -12Q285 -12 205.5 28.0Q126 68 85.5 147.5Q45 227 45 344Q45 520 135.5 610.0Q226 700 402 700Q502 700 576.5 666.5Q651 633 692.0 567.0Q733 501 733 405H522Q522 445 508.0 474.0Q494 503 467.5 519.0Q441 535 401 535Q354 535 325.5 515.0Q297 495 284.0 459.0Q271 423 271 376V312Q271 265 284.5 229.0Q298 193 326.0 173.0Q354 153 399 153Q443 153 471.5 168.0Q500 183 514.5 211.5Q529 240 529 279H733Q733 185 694.0 120.0Q655 55 581.0 21.5Q507 -12 402 -12Z" transform="translate(804.325000 670.050000) scale(0.07500000 -0.07500000)"/></g><g clip-path="url(#tag-outline)"><rect x="0" y="790" width="1000" height="210" fill="#D4FF3F"/></g><g fill="#0A0B0D"><path d="M383 -12Q312 -12 250.5 -1.5Q189 9 142.5 34.5Q96 60 69.5 105.5Q43 151 43 220Q43 222 43.0 225.5Q43 229 44 233H253Q252 229 252.0 225.5Q252 222 252 219Q252 189 266.0 173.0Q280 157 305.5 151.5Q331 146 363 146Q375 146 388.5 146.5Q402 147 414.5 149.5Q427 152 437.5 157.0Q448 162 454.0 170.5Q460 179 460 192Q460 211 443.0 222.0Q426 233 397.0 241.0Q368 249 332.0 256.0Q296 263 257.0 272.5Q218 282 182.0 297.0Q146 312 117.0 335.5Q88 359 71.0 394.5Q54 430 54 480Q54 540 79.0 582.0Q104 624 147.5 650.0Q191 676 246.5 688.0Q302 700 363 700Q425 700 479.5 687.5Q534 675 576.0 649.0Q618 623 642.0 583.0Q666 543 667 488V476H460V480Q460 498 451.0 514.0Q442 530 422.5 540.0Q403 550 371 550Q341 550 320.5 544.0Q300 538 290.0 527.5Q280 517 280 505Q280 486 297.0 474.0Q314 462 343.0 454.0Q372 446 408.0 439.0Q444 432 483.0 423.5Q522 415 558.0 401.0Q594 387 623.0 364.5Q652 342 669.0 309.0Q686 276 686 228Q686 143 646.5 90.0Q607 37 538.5 12.5Q470 -12 383 -12Z" transform="translate(254.440000 880.384000) scale(0.05600000 -0.05600000)"/><path d="M402 -12Q285 -12 205.5 28.0Q126 68 85.5 147.5Q45 227 45 344Q45 520 135.5 610.0Q226 700 402 700Q502 700 576.5 666.5Q651 633 692.0 567.0Q733 501 733 405H522Q522 445 508.0 474.0Q494 503 467.5 519.0Q441 535 401 535Q354 535 325.5 515.0Q297 495 284.0 459.0Q271 423 271 376V312Q271 265 284.5 229.0Q298 193 326.0 173.0Q354 153 399 153Q443 153 471.5 168.0Q500 183 514.5 211.5Q529 240 529 279H733Q733 185 694.0 120.0Q655 55 581.0 21.5Q507 -12 402 -12Z" transform="translate(294.872000 880.384000) scale(0.05600000 -0.05600000)"/><path d="M10 0 261 688H518L769 0H535L506 97H265L236 0ZM311 251H461L428 361Q424 373 419.0 390.0Q414 407 409.0 426.0Q404 445 399.0 463.5Q394 482 390 496H382Q378 478 371.5 455.0Q365 432 358.0 407.5Q351 383 344 361Z" transform="translate(337.320000 880.384000) scale(0.05600000 -0.05600000)"/><path d="M74 0V688H262L476 441Q485 431 500.0 412.0Q515 393 530.5 373.5Q546 354 554 342L559 344Q558 372 558.0 399.5Q558 427 558 441V688H759V0H572L331 275Q314 295 302.0 311.5Q290 328 279 343L274 341Q275 322 275.0 303.0Q275 284 275 275V0Z" transform="translate(380.888000 880.384000) scale(0.05600000 -0.05600000)"/><path d="M74 0V688H262L476 441Q485 431 500.0 412.0Q515 393 530.5 373.5Q546 354 554 342L559 344Q558 372 558.0 399.5Q558 427 558 441V688H759V0H572L331 275Q314 295 302.0 311.5Q290 328 279 343L274 341Q275 322 275.0 303.0Q275 284 275 275V0Z" transform="translate(427.536000 880.384000) scale(0.05600000 -0.05600000)"/><path d="M77 0V688H672V523H298V428H618V270H298V165H679V0Z" transform="translate(474.184000 880.384000) scale(0.05600000 -0.05600000)"/><path d="M74 0V688H262L476 441Q485 431 500.0 412.0Q515 393 530.5 373.5Q546 354 554 342L559 344Q558 372 558.0 399.5Q558 427 558 441V688H759V0H572L331 275Q314 295 302.0 311.5Q290 328 279 343L274 341Q275 322 275.0 303.0Q275 284 275 275V0Z" transform="translate(514.616000 880.384000) scale(0.05600000 -0.05600000)"/><path d="M416 -12Q299 -12 216.0 28.0Q133 68 89.0 147.5Q45 227 45 344Q45 462 89.0 541.0Q133 620 216.0 660.0Q299 700 416 700Q534 700 617.0 660.0Q700 620 744.0 541.0Q788 462 788 344Q788 227 744.0 147.5Q700 68 617.0 28.0Q534 -12 416 -12ZM416 153Q452 153 479.5 164.5Q507 176 525.5 197.0Q544 218 553.0 247.5Q562 277 562 312V376Q562 411 553.0 440.5Q544 470 525.5 491.0Q507 512 479.5 523.5Q452 535 416 535Q380 535 352.5 523.5Q325 512 307.0 491.0Q289 470 280.0 440.5Q271 411 271 376V312Q271 277 280.0 247.5Q289 218 307.0 197.0Q325 176 352.5 164.5Q380 153 416 153Z" transform="translate(571.344000 880.384000) scale(0.05600000 -0.05600000)"/><path d="M74 0V688H372Q490 688 570.0 651.0Q650 614 691.5 538.0Q733 462 733 344Q733 227 691.5 150.5Q650 74 570.0 37.0Q490 0 372 0ZM295 165H368Q404 165 430.5 175.0Q457 185 474.0 204.0Q491 223 499.0 251.0Q507 279 507 314V374Q507 409 499.0 437.0Q491 465 474.0 484.0Q457 503 430.5 513.0Q404 523 368 523H295Z" transform="translate(617.992000 880.384000) scale(0.05600000 -0.05600000)"/><path d="M77 0V688H672V523H298V428H618V270H298V165H679V0Z" transform="translate(661.560000 880.384000) scale(0.05600000 -0.05600000)"/><path d="M74 0V688H505Q582 688 633.5 657.0Q685 626 711.0 576.0Q737 526 737 468Q737 402 706.0 350.5Q675 299 622 268L757 0H509L404 231H295V0ZM295 384H450Q476 384 494.0 404.5Q512 425 512 459Q512 480 504.0 496.0Q496 512 482.0 521.5Q468 531 450 531H295Z" transform="translate(701.992000 880.384000) scale(0.05600000 -0.05600000)"/></g><g fill="#0A0B0D"><path d="M74 0V688H295V437H538V688H759V0H538V261H295V0Z" transform="translate(180.044000 947.024000) scale(0.05600000 -0.05600000)"/><path d="M10 0 261 688H518L769 0H535L506 97H265L236 0ZM311 251H461L428 361Q424 373 419.0 390.0Q414 407 409.0 426.0Q404 445 399.0 463.5Q394 482 390 496H382Q378 478 371.5 455.0Q365 432 358.0 407.5Q351 383 344 361Z" transform="translate(226.692000 947.024000) scale(0.05600000 -0.05600000)"/><path d="M74 0V688H262L476 441Q485 431 500.0 412.0Q515 393 530.5 373.5Q546 354 554 342L559 344Q558 372 558.0 399.5Q558 427 558 441V688H759V0H572L331 275Q314 295 302.0 311.5Q290 328 279 343L274 341Q275 322 275.0 303.0Q275 284 275 275V0Z" transform="translate(270.260000 947.024000) scale(0.05600000 -0.05600000)"/><path d="M74 0V688H372Q490 688 570.0 651.0Q650 614 691.5 538.0Q733 462 733 344Q733 227 691.5 150.5Q650 74 570.0 37.0Q490 0 372 0ZM295 165H368Q404 165 430.5 175.0Q457 185 474.0 204.0Q491 223 499.0 251.0Q507 279 507 314V374Q507 409 499.0 437.0Q491 465 474.0 484.0Q457 503 430.5 513.0Q404 523 368 523H295Z" transform="translate(316.908000 947.024000) scale(0.05600000 -0.05600000)"/><path d="M280 0V267L7 688H261L393 459H397L529 688H770L501 267V0Z" transform="translate(358.796000 947.024000) scale(0.05600000 -0.05600000)"/><path d="M74 0V688H295V437H538V688H759V0H538V261H295V0Z" transform="translate(409.644000 947.024000) scale(0.05600000 -0.05600000)"/><path d="M74 0V688H295V0Z" transform="translate(456.292000 947.024000) scale(0.05600000 -0.05600000)"/><path d="M77 0V688H672V523H298V428H618V270H298V165H679V0Z" transform="translate(476.956000 947.024000) scale(0.05600000 -0.05600000)"/><path d="M74 0V688H505Q582 688 633.5 657.0Q685 626 711.0 576.0Q737 526 737 468Q737 402 706.0 350.5Q675 299 622 268L757 0H509L404 231H295V0ZM295 384H450Q476 384 494.0 404.5Q512 425 512 459Q512 480 504.0 496.0Q496 512 482.0 521.5Q468 531 450 531H295Z" transform="translate(517.388000 947.024000) scale(0.05600000 -0.05600000)"/><path d="M74 0V688H295V437H538V688H759V0H538V261H295V0Z" transform="translate(571.036000 947.024000) scale(0.05600000 -0.05600000)"/><path d="M10 0 261 688H518L769 0H535L506 97H265L236 0ZM311 251H461L428 361Q424 373 419.0 390.0Q414 407 409.0 426.0Q404 445 399.0 463.5Q394 482 390 496H382Q378 478 371.5 455.0Q365 432 358.0 407.5Q351 383 344 361Z" transform="translate(617.684000 947.024000) scale(0.05600000 -0.05600000)"/><path d="M74 0V688H295V176H648V0Z" transform="translate(661.252000 947.024000) scale(0.05600000 -0.05600000)"/><path d="M249 0V512H23V688H695V512H470V0Z" transform="translate(692.444000 947.024000) scale(0.05600000 -0.05600000)"/><path d="M77 0V688H672V523H298V428H618V270H298V165H679V0Z" transform="translate(732.876000 947.024000) scale(0.05600000 -0.05600000)"/><path d="M74 0V688H262L476 441Q485 431 500.0 412.0Q515 393 530.5 373.5Q546 354 554 342L559 344Q558 372 558.0 399.5Q558 427 558 441V688H759V0H572L331 275Q314 295 302.0 311.5Q290 328 279 343L274 341Q275 322 275.0 303.0Q275 284 275 275V0Z" transform="translate(773.308000 947.024000) scale(0.05600000 -0.05600000)"/></g></svg>